<?xml version="1.0" standalone="no"?><svg xmlns="http://www.w3.org/2000/svg" viewBox="0 0 1440 320"><path fill="#021538" fill-opacity="0.9" d="M0,160L40,160C80,160,160,160,240,133.3C320,107,400,53,480,48C560,43,640,85,720,117.3C800,149,880,171,960,186.7C1040,203,1120,213,1200,218.7C1280,224,1360,224,1400,224L1440,224L1440,320L1400,320C1360,320,1280,320,1200,320C1120,320,1040,320,960,320C880,320,800,320,720,320C640,320,560,320,480,320C400,320,320,320,240,320C160,320,80,320,40,320L0,320Z"></path></svg>